<mxfile host="65bd71144e">
    <diagram name="Page-1" id="unvnYq0bVVPmCTLakuz1">
        <mxGraphModel dx="2323" dy="1186" grid="1" gridSize="10" guides="1" tooltips="1" connect="1" arrows="1" fold="1" page="1" pageScale="1" pageWidth="850" pageHeight="1100" math="0" shadow="0">
            <root>
                <mxCell id="0"/>
                <mxCell id="1" parent="0"/>
                <mxCell id="8NgCcinSyD-TenDjRDiy-2" style="edgeStyle=none;curved=1;rounded=0;orthogonalLoop=1;jettySize=auto;html=1;exitX=0;exitY=0;exitDx=0;exitDy=0;fontSize=12;startSize=8;endSize=8;entryX=1;entryY=0.5;entryDx=0;entryDy=0;" parent="1" source="8NgCcinSyD-TenDjRDiy-12" target="8NgCcinSyD-TenDjRDiy-14" edge="1">
                    <mxGeometry relative="1" as="geometry">
                        <mxPoint x="670" y="405" as="targetPoint"/>
                    </mxGeometry>
                </mxCell>
                <mxCell id="8NgCcinSyD-TenDjRDiy-3" style="edgeStyle=none;curved=1;rounded=0;orthogonalLoop=1;jettySize=auto;html=1;exitX=0;exitY=0.5;exitDx=0;exitDy=0;fontSize=12;startSize=8;endSize=8;entryX=1.004;entryY=0.413;entryDx=0;entryDy=0;entryPerimeter=0;" parent="1" source="8NgCcinSyD-TenDjRDiy-12" target="6" edge="1">
                    <mxGeometry relative="1" as="geometry">
                        <mxPoint x="455" y="545" as="targetPoint"/>
                    </mxGeometry>
                </mxCell>
                <mxCell id="8NgCcinSyD-TenDjRDiy-4" value="" style="edgeStyle=none;curved=1;rounded=0;orthogonalLoop=1;jettySize=auto;html=1;fontSize=12;startSize=8;endSize=8;" parent="1" source="8NgCcinSyD-TenDjRDiy-12" target="8NgCcinSyD-TenDjRDiy-18" edge="1">
                    <mxGeometry relative="1" as="geometry"/>
                </mxCell>
                <mxCell id="8NgCcinSyD-TenDjRDiy-5" value="" style="edgeStyle=none;curved=1;rounded=0;orthogonalLoop=1;jettySize=auto;html=1;fontSize=12;startSize=8;endSize=8;arcSize=29;strokeWidth=1;endArrow=none;endFill=0;" parent="1" source="8NgCcinSyD-TenDjRDiy-12" target="8NgCcinSyD-TenDjRDiy-42" edge="1">
                    <mxGeometry relative="1" as="geometry"/>
                </mxCell>
                <mxCell id="8NgCcinSyD-TenDjRDiy-6" value="M" style="edgeLabel;html=1;align=center;verticalAlign=middle;resizable=0;points=[];fontSize=12;" parent="8NgCcinSyD-TenDjRDiy-5" vertex="1" connectable="0">
                    <mxGeometry x="0.1673" y="-1" relative="1" as="geometry">
                        <mxPoint y="25" as="offset"/>
                    </mxGeometry>
                </mxCell>
                <mxCell id="8NgCcinSyD-TenDjRDiy-7" value="" style="edgeStyle=none;curved=1;rounded=0;orthogonalLoop=1;jettySize=auto;html=1;fontSize=12;startSize=8;endSize=8;arcSize=29;strokeWidth=1;endArrow=none;endFill=0;" parent="1" source="8NgCcinSyD-TenDjRDiy-12" target="8NgCcinSyD-TenDjRDiy-48" edge="1">
                    <mxGeometry relative="1" as="geometry"/>
                </mxCell>
                <mxCell id="KutkuXrmJMOsNWjYC2dP-2" value="N" style="edgeLabel;html=1;align=center;verticalAlign=middle;resizable=0;points=[];" parent="8NgCcinSyD-TenDjRDiy-7" vertex="1" connectable="0">
                    <mxGeometry x="0.0643" y="3" relative="1" as="geometry">
                        <mxPoint as="offset"/>
                    </mxGeometry>
                </mxCell>
                <mxCell id="8NgCcinSyD-TenDjRDiy-9" value="" style="edgeStyle=none;curved=1;rounded=0;orthogonalLoop=1;jettySize=auto;html=1;fontSize=12;startSize=8;endSize=8;entryX=1;entryY=0.5;entryDx=0;entryDy=0;" parent="1" source="8NgCcinSyD-TenDjRDiy-12" target="8NgCcinSyD-TenDjRDiy-13" edge="1">
                    <mxGeometry relative="1" as="geometry"/>
                </mxCell>
                <mxCell id="8NgCcinSyD-TenDjRDiy-10" value="" style="edgeStyle=none;curved=1;rounded=0;orthogonalLoop=1;jettySize=auto;html=1;fontSize=12;arcSize=29;strokeWidth=1;endArrow=none;endFill=0;shape=pipe;" parent="1" source="8NgCcinSyD-TenDjRDiy-12" target="8NgCcinSyD-TenDjRDiy-51" edge="1">
                    <mxGeometry relative="1" as="geometry"/>
                </mxCell>
                <mxCell id="8NgCcinSyD-TenDjRDiy-11" value="1" style="edgeLabel;html=1;align=center;verticalAlign=middle;resizable=0;points=[];fontSize=12;" parent="8NgCcinSyD-TenDjRDiy-10" vertex="1" connectable="0">
                    <mxGeometry x="-0.1898" y="-2" relative="1" as="geometry">
                        <mxPoint as="offset"/>
                    </mxGeometry>
                </mxCell>
                <mxCell id="8NgCcinSyD-TenDjRDiy-12" value="musician" style="rounded=0;whiteSpace=wrap;html=1;" parent="1" vertex="1">
                    <mxGeometry x="525" y="455" width="120" height="60" as="geometry"/>
                </mxCell>
                <mxCell id="8NgCcinSyD-TenDjRDiy-13" value="name" style="ellipse;whiteSpace=wrap;html=1;" parent="1" vertex="1">
                    <mxGeometry x="360" y="455" width="90" height="40" as="geometry"/>
                </mxCell>
                <mxCell id="8NgCcinSyD-TenDjRDiy-14" value="&lt;u&gt;ID&lt;/u&gt;" style="ellipse;whiteSpace=wrap;html=1;" parent="1" vertex="1">
                    <mxGeometry x="360" y="365" width="90" height="40" as="geometry"/>
                </mxCell>
                <mxCell id="8NgCcinSyD-TenDjRDiy-16" style="edgeStyle=none;curved=1;rounded=0;orthogonalLoop=1;jettySize=auto;html=1;fontSize=12;startSize=8;endSize=8;" parent="1" source="8NgCcinSyD-TenDjRDiy-18" target="8NgCcinSyD-TenDjRDiy-19" edge="1">
                    <mxGeometry relative="1" as="geometry">
                        <mxPoint x="464.9999999999999" y="665" as="targetPoint"/>
                    </mxGeometry>
                </mxCell>
                <mxCell id="8NgCcinSyD-TenDjRDiy-17" style="edgeStyle=none;curved=1;rounded=0;orthogonalLoop=1;jettySize=auto;html=1;fontSize=12;startSize=8;endSize=8;" parent="1" source="8NgCcinSyD-TenDjRDiy-18" target="8NgCcinSyD-TenDjRDiy-20" edge="1">
                    <mxGeometry relative="1" as="geometry">
                        <mxPoint x="564.9999999999999" y="655" as="targetPoint"/>
                    </mxGeometry>
                </mxCell>
                <mxCell id="8NgCcinSyD-TenDjRDiy-18" value="Address" style="ellipse;whiteSpace=wrap;html=1;rounded=0;" parent="1" vertex="1">
                    <mxGeometry x="355" y="600" width="100" height="40" as="geometry"/>
                </mxCell>
                <mxCell id="8NgCcinSyD-TenDjRDiy-19" value="street" style="ellipse;whiteSpace=wrap;html=1;" parent="1" vertex="1">
                    <mxGeometry x="200" y="635" width="70" height="30" as="geometry"/>
                </mxCell>
                <mxCell id="8NgCcinSyD-TenDjRDiy-20" value="city" style="ellipse;whiteSpace=wrap;html=1;" parent="1" vertex="1">
                    <mxGeometry x="205" y="565" width="70" height="30" as="geometry"/>
                </mxCell>
                <mxCell id="8NgCcinSyD-TenDjRDiy-21" value="" style="edgeStyle=none;curved=1;rounded=0;orthogonalLoop=1;jettySize=auto;html=1;fontSize=12;startSize=8;endSize=8;" parent="1" source="8NgCcinSyD-TenDjRDiy-23" target="8NgCcinSyD-TenDjRDiy-24" edge="1">
                    <mxGeometry relative="1" as="geometry"/>
                </mxCell>
                <mxCell id="8NgCcinSyD-TenDjRDiy-22" style="edgeStyle=none;curved=1;rounded=0;orthogonalLoop=1;jettySize=auto;html=1;exitX=0.5;exitY=0;exitDx=0;exitDy=0;fontSize=12;startSize=8;endSize=8;" parent="1" source="8NgCcinSyD-TenDjRDiy-23" target="8NgCcinSyD-TenDjRDiy-25" edge="1">
                    <mxGeometry relative="1" as="geometry">
                        <mxPoint x="820" y="40" as="targetPoint"/>
                    </mxGeometry>
                </mxCell>
                <mxCell id="8NgCcinSyD-TenDjRDiy-23" value="Instrument" style="rounded=0;whiteSpace=wrap;html=1;" parent="1" vertex="1">
                    <mxGeometry x="700" y="120" width="120" height="60" as="geometry"/>
                </mxCell>
                <mxCell id="8NgCcinSyD-TenDjRDiy-24" value="&lt;u&gt;name&lt;/u&gt;" style="ellipse;whiteSpace=wrap;html=1;rounded=0;" parent="1" vertex="1">
                    <mxGeometry x="590" width="80" height="40" as="geometry"/>
                </mxCell>
                <mxCell id="8NgCcinSyD-TenDjRDiy-25" value="musical_key" style="ellipse;whiteSpace=wrap;html=1;" parent="1" vertex="1">
                    <mxGeometry x="790" width="80" height="40" as="geometry"/>
                </mxCell>
                <mxCell id="8NgCcinSyD-TenDjRDiy-26" style="edgeStyle=none;curved=1;rounded=0;orthogonalLoop=1;jettySize=auto;html=1;fontSize=12;startSize=8;endSize=8;exitX=1;exitY=0.5;exitDx=0;exitDy=0;entryX=0;entryY=0.5;entryDx=0;entryDy=0;" parent="1" source="8NgCcinSyD-TenDjRDiy-31" target="8NgCcinSyD-TenDjRDiy-33" edge="1">
                    <mxGeometry relative="1" as="geometry">
                        <mxPoint x="1095" y="395" as="targetPoint"/>
                        <mxPoint x="1095" y="475" as="sourcePoint"/>
                    </mxGeometry>
                </mxCell>
                <mxCell id="8NgCcinSyD-TenDjRDiy-27" style="edgeStyle=none;curved=1;rounded=0;orthogonalLoop=1;jettySize=auto;html=1;exitX=1;exitY=1;exitDx=0;exitDy=0;fontSize=12;startSize=8;endSize=8;entryX=0;entryY=0.5;entryDx=0;entryDy=0;" parent="1" source="8NgCcinSyD-TenDjRDiy-31" edge="1">
                    <mxGeometry relative="1" as="geometry">
                        <mxPoint x="1230" y="575" as="targetPoint"/>
                    </mxGeometry>
                </mxCell>
                <mxCell id="8NgCcinSyD-TenDjRDiy-28" value="" style="edgeStyle=none;curved=1;rounded=0;orthogonalLoop=1;jettySize=auto;html=1;fontSize=12;startSize=8;endSize=8;arcSize=29;strokeWidth=1;endArrow=none;endFill=0;" parent="1" source="8NgCcinSyD-TenDjRDiy-31" target="8NgCcinSyD-TenDjRDiy-45" edge="1">
                    <mxGeometry relative="1" as="geometry"/>
                </mxCell>
                <mxCell id="8NgCcinSyD-TenDjRDiy-29" value="1" style="edgeLabel;html=1;align=center;verticalAlign=middle;resizable=0;points=[];fontSize=12;arcSize=29;" parent="8NgCcinSyD-TenDjRDiy-28" vertex="1" connectable="0">
                    <mxGeometry x="0.1102" y="-1" relative="1" as="geometry">
                        <mxPoint as="offset"/>
                    </mxGeometry>
                </mxCell>
                <mxCell id="8NgCcinSyD-TenDjRDiy-30" style="edgeStyle=none;curved=1;rounded=0;orthogonalLoop=1;jettySize=auto;html=1;entryX=0;entryY=0.5;entryDx=0;entryDy=0;fontSize=12;startSize=8;endSize=8;" parent="1" source="8NgCcinSyD-TenDjRDiy-31" target="8NgCcinSyD-TenDjRDiy-32" edge="1">
                    <mxGeometry relative="1" as="geometry"/>
                </mxCell>
                <mxCell id="8NgCcinSyD-TenDjRDiy-31" value="album" style="rounded=0;whiteSpace=wrap;html=1;" parent="1" vertex="1">
                    <mxGeometry x="1035" y="455" width="120" height="60" as="geometry"/>
                </mxCell>
                <mxCell id="8NgCcinSyD-TenDjRDiy-32" value="&lt;u&gt;title&lt;/u&gt;" style="ellipse;whiteSpace=wrap;html=1;" parent="1" vertex="1">
                    <mxGeometry x="1230" y="375" width="90" height="40" as="geometry"/>
                </mxCell>
                <mxCell id="8NgCcinSyD-TenDjRDiy-33" value="&amp;nbsp;copyright_date" style="ellipse;whiteSpace=wrap;html=1;" parent="1" vertex="1">
                    <mxGeometry x="1235" y="465" width="90" height="40" as="geometry"/>
                </mxCell>
                <mxCell id="8NgCcinSyD-TenDjRDiy-34" value="&lt;u&gt;album_identifier&lt;/u&gt;" style="ellipse;whiteSpace=wrap;html=1;" parent="1" vertex="1">
                    <mxGeometry x="1230" y="560" width="95" height="40" as="geometry"/>
                </mxCell>
                <mxCell id="8NgCcinSyD-TenDjRDiy-35" style="edgeStyle=none;curved=1;rounded=0;orthogonalLoop=1;jettySize=auto;html=1;fontSize=12;startSize=8;endSize=8;entryX=0.5;entryY=0;entryDx=0;entryDy=0;exitX=0.5;exitY=1;exitDx=0;exitDy=0;" parent="1" source="8NgCcinSyD-TenDjRDiy-37" target="8NgCcinSyD-TenDjRDiy-39" edge="1">
                    <mxGeometry relative="1" as="geometry">
                        <mxPoint x="1100" y="975" as="targetPoint"/>
                        <mxPoint x="1100" y="1055" as="sourcePoint"/>
                    </mxGeometry>
                </mxCell>
                <mxCell id="8NgCcinSyD-TenDjRDiy-36" style="edgeStyle=none;curved=1;rounded=0;orthogonalLoop=1;jettySize=auto;html=1;entryX=0.5;entryY=0;entryDx=0;entryDy=0;fontSize=12;startSize=8;endSize=8;" parent="1" source="8NgCcinSyD-TenDjRDiy-37" target="8NgCcinSyD-TenDjRDiy-38" edge="1">
                    <mxGeometry relative="1" as="geometry"/>
                </mxCell>
                <mxCell id="8NgCcinSyD-TenDjRDiy-37" value="song" style="rounded=0;whiteSpace=wrap;html=1;arcSize=29;" parent="1" vertex="1">
                    <mxGeometry x="1035" y="805" width="120" height="60" as="geometry"/>
                </mxCell>
                <mxCell id="8NgCcinSyD-TenDjRDiy-38" value="&lt;u&gt;title&lt;/u&gt;" style="ellipse;whiteSpace=wrap;html=1;" parent="1" vertex="1">
                    <mxGeometry x="990" y="960" width="90" height="40" as="geometry"/>
                </mxCell>
                <mxCell id="8NgCcinSyD-TenDjRDiy-39" value="author" style="ellipse;whiteSpace=wrap;html=1;" parent="1" vertex="1">
                    <mxGeometry x="1110" y="960" width="90" height="40" as="geometry"/>
                </mxCell>
                <mxCell id="8NgCcinSyD-TenDjRDiy-40" value="" style="edgeStyle=none;curved=1;rounded=0;orthogonalLoop=1;jettySize=auto;html=1;fontSize=12;startSize=8;endSize=8;arcSize=29;strokeWidth=1;endArrow=none;endFill=0;" parent="1" source="8NgCcinSyD-TenDjRDiy-42" target="8NgCcinSyD-TenDjRDiy-23" edge="1">
                    <mxGeometry relative="1" as="geometry"/>
                </mxCell>
                <mxCell id="KutkuXrmJMOsNWjYC2dP-1" value="N" style="edgeLabel;html=1;align=center;verticalAlign=middle;resizable=0;points=[];" parent="8NgCcinSyD-TenDjRDiy-40" vertex="1" connectable="0">
                    <mxGeometry x="0.0476" y="-2" relative="1" as="geometry">
                        <mxPoint as="offset"/>
                    </mxGeometry>
                </mxCell>
                <mxCell id="8NgCcinSyD-TenDjRDiy-42" value="play" style="rhombus;whiteSpace=wrap;html=1;rounded=0;" parent="1" vertex="1">
                    <mxGeometry x="545" y="260" width="80" height="80" as="geometry"/>
                </mxCell>
                <mxCell id="8NgCcinSyD-TenDjRDiy-43" value="" style="edgeStyle=none;curved=1;rounded=0;orthogonalLoop=1;jettySize=auto;html=1;fontSize=12;arcSize=29;strokeWidth=1;endArrow=none;endFill=0;shape=link;" parent="1" source="8NgCcinSyD-TenDjRDiy-45" target="8NgCcinSyD-TenDjRDiy-37" edge="1">
                    <mxGeometry relative="1" as="geometry"/>
                </mxCell>
                <mxCell id="8NgCcinSyD-TenDjRDiy-44" value="M" style="edgeLabel;html=1;align=center;verticalAlign=middle;resizable=0;points=[];fontSize=12;" parent="8NgCcinSyD-TenDjRDiy-43" vertex="1" connectable="0">
                    <mxGeometry x="-0.2395" y="2" relative="1" as="geometry">
                        <mxPoint x="-4" y="1" as="offset"/>
                    </mxGeometry>
                </mxCell>
                <mxCell id="8NgCcinSyD-TenDjRDiy-45" value="has" style="rhombus;whiteSpace=wrap;html=1;rounded=0;strokeWidth=3;" parent="1" vertex="1">
                    <mxGeometry x="1055" y="630" width="80" height="80" as="geometry"/>
                </mxCell>
                <mxCell id="8NgCcinSyD-TenDjRDiy-46" value="" style="edgeStyle=none;curved=1;rounded=0;orthogonalLoop=1;jettySize=auto;html=1;fontSize=12;arcSize=29;strokeWidth=1;endArrow=none;endFill=0;shape=link;" parent="1" source="8NgCcinSyD-TenDjRDiy-48" target="8NgCcinSyD-TenDjRDiy-37" edge="1">
                    <mxGeometry relative="1" as="geometry"/>
                </mxCell>
                <mxCell id="8NgCcinSyD-TenDjRDiy-47" value="M" style="edgeLabel;html=1;align=center;verticalAlign=middle;resizable=0;points=[];fontSize=12;" parent="8NgCcinSyD-TenDjRDiy-46" vertex="1" connectable="0">
                    <mxGeometry x="0.0538" y="-2" relative="1" as="geometry">
                        <mxPoint as="offset"/>
                    </mxGeometry>
                </mxCell>
                <mxCell id="8NgCcinSyD-TenDjRDiy-48" value="perform" style="rhombus;whiteSpace=wrap;html=1;rounded=0;strokeWidth=3;strokeColor=default;fillColor=none;gradientColor=none;" parent="1" vertex="1">
                    <mxGeometry x="545" y="795" width="80" height="80" as="geometry"/>
                </mxCell>
                <mxCell id="8NgCcinSyD-TenDjRDiy-49" value="" style="edgeStyle=none;curved=1;rounded=0;orthogonalLoop=1;jettySize=auto;html=1;fontSize=12;arcSize=29;strokeWidth=1;endArrow=none;endFill=0;shape=link;" parent="1" source="8NgCcinSyD-TenDjRDiy-51" target="8NgCcinSyD-TenDjRDiy-31" edge="1">
                    <mxGeometry relative="1" as="geometry"/>
                </mxCell>
                <mxCell id="8NgCcinSyD-TenDjRDiy-50" value="M" style="edgeLabel;html=1;align=center;verticalAlign=middle;resizable=0;points=[];fontSize=12;" parent="8NgCcinSyD-TenDjRDiy-49" vertex="1" connectable="0">
                    <mxGeometry x="-0.1894" y="-1" relative="1" as="geometry">
                        <mxPoint x="1" as="offset"/>
                    </mxGeometry>
                </mxCell>
                <mxCell id="8NgCcinSyD-TenDjRDiy-51" value="Produce" style="rhombus;whiteSpace=wrap;html=1;rounded=0;shadow=0;strokeWidth=3;" parent="1" vertex="1">
                    <mxGeometry x="785" y="445" width="80" height="80" as="geometry"/>
                </mxCell>
                <mxCell id="6" value="Phone_Number" style="ellipse;whiteSpace=wrap;html=1;" parent="1" vertex="1">
                    <mxGeometry x="365" y="525" width="90" height="50" as="geometry"/>
                </mxCell>
            </root>
        </mxGraphModel>
    </diagram>
</mxfile>